<svg width="275" height="275" viewBox="0 0 275 275" fill="none" xmlns="http://www.w3.org/2000/svg">
<path d="M36.3387 87.4086C60.3599 66.7836 79.3349 50.4761 130.829 79.5711C155.565 93.5411 175.516 98.8211 192.112 98.7936C221.194 98.7936 240.045 82.6236 256.339 68.6399C259.135 66.2069 260.875 62.7804 261.188 59.0868C261.501 55.3931 260.363 51.7227 258.016 48.8536C256.871 47.4458 255.456 46.2818 253.853 45.4306C252.25 44.5794 250.493 44.0583 248.686 43.898C246.878 43.7378 245.057 43.9417 243.329 44.4976C241.602 45.0536 240.003 45.9504 238.629 47.1349C214.621 67.7874 195.632 84.0949 144.139 54.9724C76.1037 16.5686 44.2312 43.9311 18.6287 65.9311C15.834 68.366 14.0973 71.7935 13.7867 75.4871C13.4762 79.1806 14.6161 82.85 16.9649 85.7174C18.1106 87.1229 19.5266 88.2842 21.1291 89.1328C22.7316 89.9813 24.488 90.4998 26.2944 90.6575C28.1008 90.8151 29.9205 90.6089 31.6457 90.0508C33.371 89.4928 34.9668 88.5943 36.3387 87.4086ZM238.629 117.356C214.621 137.981 195.632 154.316 144.139 125.194C76.1037 86.7624 44.2312 114.139 18.6287 136.125C15.834 138.56 14.0973 141.987 13.7867 145.681C13.4762 149.374 14.6161 153.044 16.9649 155.911C18.1086 157.319 19.5231 158.482 21.1246 159.333C22.7261 160.184 24.482 160.705 26.2885 160.866C28.095 161.026 29.9152 160.822 31.6415 160.266C33.3678 159.711 34.965 158.814 36.3387 157.63C60.3599 136.991 79.3349 120.684 130.829 149.765C155.565 163.762 175.516 169.015 192.112 169.015C221.194 169.015 240.045 152.845 256.339 138.834C259.138 136.405 260.879 132.98 261.192 129.288C261.505 125.596 260.366 121.927 258.016 119.061C256.871 117.653 255.455 116.488 253.852 115.637C252.249 114.786 250.491 114.266 248.683 114.107C246.875 113.948 245.053 114.153 243.326 114.712C241.599 115.27 240.002 116.169 238.629 117.356ZM238.629 187.564C214.621 208.216 195.632 224.524 144.139 195.429C76.1037 156.997 44.2312 184.36 18.6287 206.36C15.834 208.795 14.0973 212.222 13.7867 215.916C13.4762 219.609 14.6161 223.279 16.9649 226.146C18.1095 227.553 19.525 228.716 21.1275 229.566C22.7301 230.415 24.4869 230.934 26.2938 231.092C28.1008 231.25 29.921 231.043 31.6465 230.484C33.372 229.925 34.9676 229.025 36.3387 227.837C60.3599 207.212 79.3349 190.919 130.829 220C155.565 233.97 175.516 239.25 192.112 239.25C221.194 239.25 240.045 223.052 256.339 209.069C259.135 206.636 260.875 203.209 261.188 199.516C261.501 195.822 260.363 192.151 258.016 189.282C256.87 187.876 255.454 186.714 253.851 185.864C252.249 185.013 250.492 184.493 248.685 184.333C246.878 184.173 245.057 184.376 243.33 184.931C241.603 185.486 240.004 186.381 238.629 187.564Z" fill="white"/>
</svg>
