<svg width="800" height="800" viewBox="0 0 800 800" fill="none" xmlns="http://www.w3.org/2000/svg">
<g clip-path="url(#clip0_5_2)">
<path d="M650 750H550C536.751 749.961 524.056 744.681 514.688 735.312C505.319 725.944 500.039 713.249 500 700V525C486.751 524.961 474.056 519.681 464.688 510.312C455.319 500.944 450.039 488.249 450 475V325C449.819 315.101 451.635 305.267 455.34 296.085C459.044 286.904 464.562 278.564 471.563 271.563C478.564 264.562 486.904 259.044 496.086 255.339C505.267 251.634 515.101 249.818 525 250H675C684.899 249.818 694.733 251.634 703.915 255.339C713.096 259.044 721.436 264.562 728.437 271.563C735.438 278.564 740.956 286.904 744.661 296.085C748.366 305.267 750.182 315.101 750 325V475C749.961 488.249 744.681 500.944 735.313 510.312C725.944 519.681 713.249 524.961 700 525V700C699.961 713.249 694.681 725.944 685.313 735.312C675.944 744.681 663.249 749.961 650 750ZM525 300C521.665 299.799 518.324 300.307 515.2 301.493C512.076 302.678 509.238 304.512 506.875 306.875C504.513 309.238 502.678 312.075 501.493 315.2C500.308 318.324 499.799 321.664 500 325V475H550V700H650V475H700V325C700.201 321.664 699.693 318.324 698.508 315.2C697.322 312.075 695.488 309.238 693.125 306.875C690.762 304.512 687.925 302.678 684.8 301.493C681.676 300.307 678.336 299.799 675 300H525Z" fill="white"/>
<path d="M600 225C580.222 225 560.888 219.135 544.443 208.147C527.998 197.159 515.181 181.541 507.612 163.268C500.043 144.996 498.063 124.889 501.922 105.491C505.78 86.0929 515.304 68.2746 529.289 54.2894C543.275 40.3041 561.093 30.78 580.491 26.9215C599.889 23.063 619.996 25.0433 638.268 32.6121C656.541 40.1809 672.159 52.9981 683.147 69.443C694.135 85.8879 700 105.222 700 125C699.922 151.498 689.362 176.888 670.625 195.625C651.888 214.362 626.498 224.922 600 225ZM600 75C590.111 75 580.444 77.9325 572.222 83.4266C563.999 88.9206 557.59 96.7296 553.806 105.866C550.022 115.002 549.032 125.056 550.961 134.755C552.89 144.454 557.652 153.363 564.645 160.355C571.637 167.348 580.546 172.11 590.246 174.039C599.945 175.969 609.998 174.978 619.134 171.194C628.271 167.41 636.079 161.001 641.574 152.779C647.068 144.556 650 134.889 650 125C649.961 111.751 644.681 99.0561 635.312 89.6877C625.944 80.3193 613.249 75.039 600 75Z" fill="white"/>
<path d="M250 504.598V300H200V504.598C183.32 510.495 169.261 522.099 160.309 537.36C151.357 552.62 148.088 570.553 151.08 587.991C154.072 605.428 163.132 621.247 176.659 632.65C190.185 644.054 207.308 650.308 225 650.308C242.692 650.308 259.815 644.054 273.342 632.65C286.868 621.247 295.928 605.428 298.92 587.991C301.912 570.553 298.643 552.62 289.691 537.36C280.739 522.099 266.681 510.495 250 504.598Z" fill="white"/>
<path d="M225 750C190.554 750.034 156.866 739.891 128.164 720.845C99.4622 701.799 77.0263 674.699 63.6729 642.947C50.3194 611.194 46.6434 576.205 53.1064 542.37C59.5694 508.536 75.8833 477.365 100 452.77V175C100 141.848 113.17 110.054 136.612 86.6117C160.054 63.1696 191.848 50 225 50C258.152 50 289.946 63.1696 313.388 86.6117C336.831 110.054 350 141.848 350 175V452.77C374.117 477.365 390.431 508.536 396.894 542.37C403.357 576.205 399.681 611.194 386.327 642.947C372.974 674.699 350.538 701.799 321.836 720.845C293.135 739.891 259.446 750.034 225 750ZM225 100C205.116 100.022 186.052 107.931 171.991 121.991C157.931 136.052 150.022 155.115 150 175V474.585L141.7 482.043C122.822 498.915 109.513 521.123 103.535 545.727C97.5562 570.33 99.1903 596.169 108.221 619.824C117.251 643.478 133.252 663.832 154.105 678.193C174.958 692.553 199.681 700.242 225 700.242C250.32 700.242 275.042 692.553 295.895 678.193C316.749 663.832 332.749 643.478 341.78 619.824C350.81 596.169 352.444 570.33 346.466 545.727C340.487 521.123 327.178 498.915 308.3 482.043L300 474.585V175C299.978 155.115 292.069 136.052 278.009 121.991C263.948 107.931 244.885 100.022 225 100Z" fill="white"/>
</g>
<defs>
<clipPath id="clip0_5_2">
<rect width="800" height="800" fill="white"/>
</clipPath>
</defs>
</svg>
