<svg width="800" height="800" viewBox="0 0 800 800" fill="none" xmlns="http://www.w3.org/2000/svg">
<g clip-path="url(#clip0_5_8)">
<path d="M509.553 123.667C503.584 115.543 492.154 113.795 484.028 119.767C475.902 125.739 474.156 137.166 480.125 145.293C612.99 326.093 640.88 446.052 640.88 514.848C640.88 582.262 620.741 643.375 584.173 686.93C541.523 737.728 479.558 763.485 400.001 763.485C222.208 763.485 159.123 629.544 159.123 514.848C159.123 387.702 227.54 263.526 284.935 181.739C347.886 92.0358 411.797 32.2253 412.429 31.6362C419.818 24.7733 420.242 13.2192 413.379 5.83057C406.516 -1.55567 394.962 -1.98171 387.576 4.88112C384.874 7.39108 320.635 67.4426 255.495 160.116C194.874 246.365 122.606 377.918 122.606 514.846C122.606 590.466 146.155 659.939 188.912 710.464C238.48 769.041 311.476 800.002 400.001 800.002C489.576 800.002 562.932 769.021 612.14 710.411C654.223 660.29 677.399 590.836 677.399 514.848C677.397 380.306 586.123 227.861 509.553 123.667Z" fill="white"/>
<path d="M483.076 360.66L251.405 592.331C244.274 599.461 244.274 611.023 251.405 618.151C254.972 621.715 259.646 623.499 264.318 623.499C268.989 623.499 273.664 621.717 277.23 618.151L508.901 386.48C516.032 379.349 516.032 367.788 508.901 360.66C501.766 353.529 490.207 353.529 483.076 360.66Z" fill="white"/>
<path d="M467.337 506.128C434.978 506.128 408.651 532.455 408.651 564.814C408.651 597.173 434.978 623.5 467.337 623.5C499.696 623.5 526.023 597.173 526.023 564.814C526.023 532.455 499.696 506.128 467.337 506.128ZM467.337 586.982C455.114 586.982 445.169 577.037 445.169 564.814C445.169 552.59 455.114 542.645 467.337 542.645C479.561 542.645 489.506 552.59 489.506 564.814C489.506 577.037 479.561 586.982 467.337 586.982Z" fill="white"/>
<path d="M304.745 472.685C337.104 472.685 363.431 446.359 363.431 414C363.431 381.64 337.104 355.314 304.745 355.314C272.386 355.314 246.059 381.64 246.059 414C246.059 446.359 272.386 472.685 304.745 472.685ZM304.745 391.829C316.968 391.829 326.913 401.774 326.913 413.997C326.913 426.221 316.968 436.166 304.745 436.166C292.521 436.166 282.576 426.221 282.576 413.997C282.576 401.774 292.519 391.829 304.745 391.829Z" fill="white"/>
</g>
<defs>
<clipPath id="clip0_5_8">
<rect width="800" height="800" fill="white"/>
</clipPath>
</defs>
</svg>
