<svg width="330" height="330" viewBox="0 0 330 330" fill="none" xmlns="http://www.w3.org/2000/svg">
<path fill-rule="evenodd" clip-rule="evenodd" d="M58.4375 261.25C58.4375 258.515 59.524 255.892 61.458 253.958C63.3919 252.024 66.015 250.938 68.75 250.938H165H261.25C263.985 250.938 266.608 252.024 268.542 253.958C270.476 255.892 271.562 258.515 271.562 261.25C271.562 263.985 270.476 266.608 268.542 268.542C266.608 270.476 263.985 271.562 261.25 271.562H68.75C66.015 271.562 63.3919 270.476 61.458 268.542C59.524 266.608 58.4375 263.985 58.4375 261.25ZM99.6875 302.5C99.6875 299.765 100.774 297.142 102.708 295.208C104.642 293.274 107.265 292.188 110 292.188H220C222.735 292.188 225.358 293.274 227.292 295.208C229.226 297.142 230.312 299.765 230.312 302.5C230.312 305.235 229.226 307.858 227.292 309.792C225.358 311.726 222.735 312.812 220 312.812H110C107.265 312.812 104.642 311.726 102.708 309.792C100.774 307.858 99.6875 305.235 99.6875 302.5ZM165 17.1875C167.735 17.1875 170.358 18.274 172.292 20.208C174.226 22.1419 175.312 24.765 175.312 27.5V41.25C175.312 43.985 174.226 46.6081 172.292 48.542C170.358 50.476 167.735 51.5625 165 51.5625C162.265 51.5625 159.642 50.476 157.708 48.542C155.774 46.6081 154.688 43.985 154.688 41.25V27.5C154.688 24.765 155.774 22.1419 157.708 20.208C159.642 18.274 162.265 17.1875 165 17.1875ZM60.4863 60.4863C62.4199 58.5551 65.0409 57.4703 67.7738 57.4703C70.5066 57.4703 73.1277 58.5551 75.0613 60.4863L80.465 65.8762C82.3444 67.8203 83.3851 70.4248 83.3629 73.1287C83.3407 75.8327 82.2574 78.4197 80.3462 80.3326C78.4351 82.2455 75.8491 83.3313 73.1452 83.3561C70.4413 83.3808 67.8358 82.3426 65.89 80.465L60.4863 75.0613C58.5551 73.1277 57.4703 70.5066 57.4703 67.7738C57.4703 65.0409 58.5551 62.4199 60.4863 60.4863ZM269.514 60.4863C271.445 62.4199 272.53 65.0409 272.53 67.7738C272.53 70.5066 271.445 73.1277 269.514 75.0613L264.11 80.465C262.155 82.2866 259.569 83.2783 256.898 83.2312C254.226 83.184 251.677 82.1017 249.788 80.2123C247.898 78.3229 246.816 75.7738 246.769 73.1022C246.722 70.4305 247.713 67.8449 249.535 65.89L254.939 60.4863C256.872 58.5551 259.493 57.4703 262.226 57.4703C264.959 57.4703 267.58 58.5551 269.514 60.4863ZM17.1875 165C17.1875 162.265 18.274 159.642 20.208 157.708C22.1419 155.774 24.765 154.688 27.5 154.688H41.25C43.985 154.688 46.6081 155.774 48.542 157.708C50.476 159.642 51.5625 162.265 51.5625 165C51.5625 167.735 50.476 170.358 48.542 172.292C46.6081 174.226 43.985 175.312 41.25 175.312H27.5C24.765 175.312 22.1419 174.226 20.208 172.292C18.274 170.358 17.1875 167.735 17.1875 165ZM278.438 165C278.438 162.265 279.524 159.642 281.458 157.708C283.392 155.774 286.015 154.688 288.75 154.688H302.5C305.235 154.688 307.858 155.774 309.792 157.708C311.726 159.642 312.812 162.265 312.812 165C312.812 167.735 311.726 170.358 309.792 172.292C307.858 174.226 305.235 175.312 302.5 175.312H288.75C286.015 175.312 283.392 174.226 281.458 172.292C279.524 170.358 278.438 167.735 278.438 165Z" fill="#F8F8F8"/>
<path d="M72.1875 165C72.1875 181.198 76.34 196.433 83.6413 209.688H27.5C24.765 209.688 22.1419 210.774 20.208 212.708C18.274 214.642 17.1875 217.265 17.1875 220C17.1875 222.735 18.274 225.358 20.208 227.292C22.1419 229.226 24.765 230.313 27.5 230.313H154.688V162.388L144.787 172.288C143.843 173.301 142.705 174.113 141.44 174.677C140.175 175.241 138.809 175.544 137.425 175.568C136.04 175.593 134.665 175.338 133.381 174.819C132.096 174.301 130.93 173.529 129.951 172.549C128.971 171.57 128.199 170.404 127.681 169.119C127.162 167.835 126.907 166.46 126.932 165.075C126.956 163.691 127.259 162.325 127.823 161.06C128.387 159.795 129.199 158.657 130.213 157.713L157.713 130.213C159.646 128.281 162.267 127.197 165 127.197C167.733 127.197 170.354 128.281 172.287 130.213L199.787 157.713C200.801 158.657 201.613 159.795 202.177 161.06C202.741 162.325 203.044 163.691 203.068 165.075C203.093 166.46 202.838 167.835 202.319 169.119C201.801 170.404 201.029 171.57 200.049 172.549C199.07 173.529 197.904 174.301 196.619 174.819C195.335 175.338 193.96 175.593 192.575 175.568C191.191 175.544 189.825 175.241 188.56 174.677C187.295 174.113 186.157 173.301 185.213 172.288L175.312 162.388V230.313H302.5C305.235 230.313 307.858 229.226 309.792 227.292C311.726 225.358 312.812 222.735 312.812 220C312.812 217.265 311.726 214.642 309.792 212.708C307.858 210.774 305.235 209.688 302.5 209.688H246.359C253.169 197.283 257.052 183.485 257.712 169.35C258.371 155.214 255.79 141.115 250.165 128.13C244.54 115.145 236.02 103.618 225.257 94.4311C214.494 85.2438 201.773 78.6393 188.066 75.1225C174.359 71.6056 160.029 71.2697 146.173 74.1402C132.316 77.0108 119.299 83.0119 108.117 91.6847C96.9356 100.357 87.885 111.472 81.6577 124.179C75.4303 136.886 72.191 150.849 72.1875 165Z" fill="#F8F8F8"/>
</svg>
