<svg width="306" height="306" viewBox="0 0 306 306" fill="none" xmlns="http://www.w3.org/2000/svg">
<path d="M153 204C168.938 204 182.487 198.424 193.647 187.272C204.808 176.12 210.383 162.571 210.375 146.625C210.367 130.679 204.791 117.134 193.647 105.991C182.504 94.8473 168.955 89.267 153 89.25C137.045 89.233 123.501 94.8133 112.366 105.991C101.231 117.168 95.6505 130.713 95.625 146.625C95.5995 162.537 101.18 176.086 112.366 187.272C123.552 198.458 137.097 204.034 153 204ZM153 181.05C143.438 181.05 135.312 177.701 128.622 171.003C121.933 164.305 118.584 156.179 118.575 146.625C118.567 137.071 121.916 128.945 128.622 122.247C135.329 115.549 143.455 112.2 153 112.2C162.545 112.2 170.676 115.549 177.391 122.247C184.106 128.945 187.451 137.071 187.425 146.625C187.4 156.179 184.055 164.309 177.391 171.016C170.727 177.722 162.596 181.067 153 181.05ZM153 242.25C121.975 242.25 93.7125 233.593 68.2125 216.278C42.7125 198.964 24.225 175.746 12.75 146.625C24.225 117.513 42.7125 94.299 68.2125 76.9845C93.7125 59.67 121.975 51.0085 153 51C184.025 50.9915 212.287 59.653 237.787 76.9845C263.287 94.316 281.775 117.53 293.25 146.625C281.775 175.738 263.287 198.955 237.787 216.278C212.287 233.601 184.025 242.259 153 242.25Z" fill="white"/>
</svg>
