<svg width="440" height="440" viewBox="0 0 440 440" fill="none" xmlns="http://www.w3.org/2000/svg">
<path d="M403.095 110.701L155.595 28.2014C153.486 27.4997 151.239 27.3195 149.045 27.6763C146.852 28.0331 144.778 28.9163 143 30.2502L55 96.2502V27.5002H27.5V412.5H55V151.25L143 217.25C144.779 218.586 146.856 219.471 149.052 219.828C151.248 220.185 153.498 220.003 155.609 219.299L403.109 136.799C405.845 135.885 408.224 134.134 409.91 131.794C411.596 129.453 412.503 126.642 412.503 123.757C412.503 120.873 411.596 118.061 409.91 115.721C408.224 113.38 405.845 111.629 403.109 110.715L403.095 110.701ZM137.5 178.75L64.1713 123.75L137.5 68.7502V178.75ZM192.5 178.008L165 187.179V60.3214L192.5 69.4927V178.008ZM247.5 159.679L220 168.836V78.6639L247.5 87.8214V159.679ZM275 150.508V96.9927L355.273 123.75L275 150.508Z" fill="white"/>
<path d="M275 302.5C275 287.913 269.205 273.924 258.891 263.609C248.576 253.295 234.587 247.5 220 247.5C205.413 247.5 191.424 253.295 181.109 263.609C170.795 273.924 165 287.913 165 302.5H192.5C192.5 297.061 194.113 291.744 197.135 287.222C200.156 282.699 204.451 279.175 209.476 277.093C214.501 275.012 220.031 274.467 225.365 275.528C230.699 276.589 235.599 279.209 239.445 283.055C243.291 286.901 245.911 291.801 246.972 297.135C248.033 302.469 247.488 307.999 245.407 313.024C243.325 318.049 239.801 322.344 235.278 325.365C230.756 328.387 225.439 330 220 330H110V357.5H220C234.581 357.482 248.56 351.681 258.871 341.371C269.181 331.06 274.982 317.081 275 302.5Z" fill="white"/>
<path d="M357.5 302.5C342.919 302.518 328.94 308.319 318.629 318.629C308.319 328.94 302.518 342.919 302.5 357.5H330C330 352.061 331.613 346.744 334.635 342.222C337.656 337.699 341.951 334.175 346.976 332.093C352.001 330.012 357.531 329.467 362.865 330.528C368.199 331.589 373.099 334.209 376.945 338.055C380.791 341.901 383.411 346.801 384.472 352.135C385.533 357.469 384.988 362.999 382.907 368.024C380.825 373.049 377.301 377.344 372.778 380.365C368.256 383.387 362.939 385 357.5 385H165V412.5H357.5C372.087 412.5 386.076 406.705 396.391 396.391C406.705 386.076 412.5 372.087 412.5 357.5C412.5 342.913 406.705 328.924 396.391 318.609C386.076 308.295 372.087 302.5 357.5 302.5Z" fill="white"/>
</svg>
